<svg viewBox="0 0 128 128" style="shape-rendering:geometricPrecision; text-rendering:geometricPrecision; image-rendering:optimizeQuality; fill-rule:evenodd; clip-rule:evenodd" xmlns="http://www.w3.org/2000/svg">
  <defs>
    <linearGradient gradientUnits="userSpaceOnUse" x1="64" y1="0" x2="64" y2="128" id="gradient-0">
      <stop offset="0" style="stop-color: rgb(0% 63.922% 100%)"/>
      <stop offset="1" style="stop-color: rgb(0% 37.661% 62.464%)"/>
    </linearGradient>
  </defs>
  <circle style="stroke-width: 0px; stroke: rgb(255, 0, 0); fill: url('#gradient-0');" cx="64" cy="64" r="64" transform="matrix(0.9999999999999999, 0, 0, 0.9999999999999999, -5.684341886080802e-14, -1.4210854715202004e-14)"/>
  <g transform="matrix(0.056464005261659615, 0, 0, 0.05640100315213202, 14.540959791569662, 17.108812842035633)">
    <path style="opacity: 0.991; fill: rgb(255, 255, 255);" d="M 837.5,69.5 C 1051.68,62.3707 1237.68,130.204 1395.5,273C 1564.13,435.76 1644.63,634.926 1637,870.5C 1621.83,1095.01 1528.66,1279.18 1357.5,1423C 1205.55,1544.2 1031.88,1600.87 836.5,1593C 625.997,1579.15 449.83,1494.99 308,1340.5C 171.697,1183.96 107.363,1001.29 115,792.5C 130.169,567.987 223.336,383.82 394.5,240C 523.715,136.437 671.382,79.6034 837.5,69.5 Z M 874.5,164.5 C 1076.6,168.325 1244.77,244.992 1379,394.5C 1508.55,549.223 1560.55,727.223 1535,928.5C 1507.28,1100.17 1426.78,1241.01 1293.5,1351C 1238.65,1394.86 1178.15,1429.36 1112,1454.5C 1064.72,1437.81 1025.05,1410.47 993,1372.5C 983.05,1359.11 974.884,1344.78 968.5,1329.5C 1024.64,1315.98 1074.97,1291.15 1119.5,1255C 1194.31,1191.57 1239.15,1111.07 1254,1013.5C 1256.07,995.56 1256.91,977.56 1256.5,959.5C 1148.83,959.5 1041.17,959.5 933.5,959.5C 933.094,950.65 932.427,941.816 931.5,933C 931.833,931.833 932.167,930.667 932.5,929.5C 1029.57,908.201 1101.74,854.201 1149,767.5C 1171.48,722.899 1182.32,675.566 1181.5,625.5C 1091.16,625.833 1000.83,625.5 910.5,624.5C 909.503,616.883 908.837,609.216 908.5,601.5C 995.654,584.163 1055.15,534.163 1087,451.5C 1095.62,426.95 1099.46,401.616 1098.5,375.5C 947.5,375.5 796.5,375.5 645.5,375.5C 646.736,453.14 678.069,515.307 739.5,562C 770.249,583.422 804.249,596.922 841.5,602.5C 841.116,609.879 840.45,617.212 839.5,624.5C 749.169,625.5 658.836,625.833 568.5,625.5C 569.407,724.467 607.741,805.301 683.5,868C 723.318,898.548 767.985,919.048 817.5,929.5C 817.833,930.667 818.167,931.833 818.5,933C 817.573,941.816 816.906,950.65 816.5,959.5C 711.5,959.5 606.5,959.5 501.5,959.5C 500.5,997.168 505.167,1034.17 515.5,1070.5C 553.29,1185.89 627.623,1267.06 738.5,1314C 752.602,1319.26 766.935,1323.92 781.5,1328C 781.833,1328.33 782.167,1328.67 782.5,1329C 761.3,1374.08 728.967,1408.74 685.5,1433C 670.511,1441.33 655.011,1448.49 639,1454.5C 486.906,1394.4 370.906,1293.07 291,1150.5C 207.789,992.273 188.789,826.607 234,653.5C 281.619,489.972 376.452,361.806 518.5,269C 627.332,200.892 745.998,166.059 874.5,164.5 Z M 874.5,1383.5 C 891.174,1425.5 915.84,1462.17 948.5,1493.5C 907.251,1498.45 865.918,1499.28 824.5,1496C 816.644,1495.71 808.978,1494.71 801.5,1493C 834.459,1462.25 858.792,1425.75 874.5,1383.5 Z"/>
  </g>
</svg>